<?xml version="1.0" encoding="utf-8"?>
<!-- Generator: Adobe Illustrator 26.0.3, SVG Export Plug-In . SVG Version: 6.00 Build 0)  -->
<svg version="1.1" id="Layer_1" xmlns="http://www.w3.org/2000/svg" xmlns:xlink="http://www.w3.org/1999/xlink" x="0px" y="0px"
	 viewBox="0 0 94.3 50" style="enable-background:new 0 0 94.3 50;" xml:space="preserve">
<style type="text/css">
	.st0{fill:#231F1F;}
	.st1{fill:#5D3EBC;}
	.st2{fill:#FFFFFF;}
	.st3{filter:url(#Adobe_OpacityMaskFilter);}
	.st4{fill-rule:evenodd;clip-rule:evenodd;fill:#FFFFFF;}
	.st5{mask:url(#mask-2_00000052071856800029390820000000666906293174332604_);}
	.st6{filter:url(#Adobe_OpacityMaskFilter_00000044178655606169337220000017648606030766790033_);}
	.st7{mask:url(#mask-4_00000018199228850983432700000016724008956575519141_);fill:#FFD10D;}
	.st8{filter:url(#Adobe_OpacityMaskFilter_00000057127166535428013850000007109242837989621180_);}
	.st9{mask:url(#mask-6_00000060015246543789776040000008244370739750108845_);fill:#FFD10D;}
	.st10{filter:url(#Adobe_OpacityMaskFilter_00000046339945494983601460000012556528190284546694_);}
	.st11{mask:url(#mask-8_00000054981436123089227360000003922894205699100605_);fill:#FFD10D;}
	.st12{filter:url(#Adobe_OpacityMaskFilter_00000078010551206692942500000012060176540145694606_);}
	.st13{mask:url(#mask-10_00000155858631616322820820000000591674227629206435_);fill:#FFD10D;}
	.st14{filter:url(#Adobe_OpacityMaskFilter_00000147922064625664270290000014594159622934406071_);}
	.st15{mask:url(#mask-12_00000155120435691390590550000013272417082445627570_);fill:#FFD10D;}
	.st16{filter:url(#Adobe_OpacityMaskFilter_00000034807590147614602360000017484334329866245804_);}
	.st17{mask:url(#mask-14_00000007408900427994124470000000860510126133312927_);fill:#FFD10D;}
	.st18{filter:url(#Adobe_OpacityMaskFilter_00000106834023704480648000000016003817326566017172_);}
	.st19{mask:url(#mask-16_00000105400910820478629410000004384438025749692852_);fill:#FFD10D;}
	.st20{filter:url(#Adobe_OpacityMaskFilter_00000061436063497610505870000012934977073335546544_);}
	.st21{mask:url(#mask-18_00000029759890169765147750000016359979847829910967_);fill:#231F1F;}
</style>
<g id="Page-1">
	<g id="n11" transform="translate(0.600100, 0.400025)">
		<g id="Group" transform="translate(57.209465, 0.000000)">
			<path id="Path" class="st0" d="M28.3,19.9c0.6-4.3-1.6-8.6-5.7-10.5c-4.1-1.9-8.8-0.8-11.7,2.4c-5.7,0.8-10.8,4.4-13.4,10
				C-6.5,30.5-2.7,40.9,6.1,45s19.2,0.3,23.3-8.5C31.9,31,31.3,24.7,28.3,19.9z"/>
			<path id="Path_00000143603971392809122760000007640815875415418806_" class="st0" d="M18.5,5.7c0.7,0.3,1.7,0,2-0.8
				c0.4-0.8,0.1-1.7-0.7-2.1c-0.7-0.3-1.7,0-2,0.8C17.4,4.4,17.7,5.3,18.5,5.7z"/>
			<path id="Path_00000137109488085303627730000011948390021594187655_" class="st0" d="M28.1,10.2c0.7,0.3,1.7,0,2-0.8
				c0.4-0.8,0.1-1.7-0.7-2.1c-0.7-0.3-1.7,0-2,0.8C27,8.9,27.3,9.8,28.1,10.2L28.1,10.2z"/>
		</g>
		<path id="Path_00000135659836416706162110000006576667349878926996_" class="st1" d="M20.6,39.9c-2.8,0-3.6-0.9-3.6-3.7v-6.4
			c0-2.4-0.8-3.5-2.9-3.5c-1.8,0-2.8,1.2-2.8,3.4v10.2H9.2c-2.7,0-4.1-1.1-4.1-3.7v-6.4c0-5.2,3.5-8.6,9.2-8.6c6.4,0,9,3.4,9,8.8
			v9.9L20.6,39.9L20.6,39.9z"/>
		<path id="Path_00000086653359770850730110000002140986857223992473_" class="st1" d="M32.9,39.9c-1.9,0-3.3-1.3-3.3-3.5V23.4
			L27.5,24c-0.5,0.1-0.9,0.2-1.4,0.2c-1.3,0-2.3-0.6-2.5-1.7l-0.4-2.2l6-2.5c1-0.4,2.2-0.7,3.7-0.7c1.5,0,3,1.1,3,2.8v19.9
			L32.9,39.9L32.9,39.9z"/>
		<path id="Path_00000132769501800186388420000015324568226775367864_" class="st1" d="M47.2,39.9c-1.9,0-3.3-1.3-3.3-3.5V23.4
			L41.8,24c-0.5,0.1-0.9,0.2-1.4,0.2c-1.3,0-2.3-0.6-2.5-1.7l-0.4-2.2l6-2.5c1-0.4,2.2-0.7,3.7-0.7c1.5,0,3,1.1,3,2.8v19.9
			L47.2,39.9L47.2,39.9z"/>
		<path id="Path_00000107560321497159779410000010971926444152310425_" class="st2" d="M85.5,19.9c0.6-4.3-1.6-8.6-5.7-10.5
			c-4.1-1.9-8.8-0.8-11.7,2.4c-5.7,0.8-10.8,4.4-13.4,10c-4.1,8.8-0.3,19.2,8.5,23.3s19.2,0.3,23.3-8.5C89.1,31,88.5,24.7,85.5,19.9
			z"/>
		<path id="Path_00000152238953024864839510000001065099366597438876_" class="st0" d="M84.7,22.7c-2.3,5-8.3,7.2-13.3,4.9
			c-5-2.3-7.2-8.3-4.8-13.3c2.3-5,8.3-7.2,13.3-4.9C84.9,11.7,87,17.7,84.7,22.7L84.7,22.7z"/>
		<path id="Path_00000167367121824585722800000014311310586464037305_" class="st1" d="M86.5,36.5C82.4,45.3,72,49.1,63.3,45
			c-8.8-4.1-12.6-14.5-8.5-23.3c4.1-8.8,14.5-12.6,23.3-8.5C86.8,17.3,90.6,27.8,86.5,36.5z"/>
		<g id="Clipped_00000119113757397195837430000015377670717620903058_" transform="translate(57.209465, 10.619460)">
			<g id="Path_00000165913104519276319410000001825873670395099285_">
			</g>
			<defs>
				<filter id="Adobe_OpacityMaskFilter" filterUnits="userSpaceOnUse" x="-0.3" y="1.7" width="29.4" height="31.7">
					<feColorMatrix  type="matrix" values="1 0 0 0 0  0 1 0 0 0  0 0 1 0 0  0 0 0 1 0"/>
				</filter>
			</defs>
			
				<mask maskUnits="userSpaceOnUse" x="-0.3" y="1.7" width="29.4" height="31.7" id="mask-2_00000052071856800029390820000000666906293174332604_">
				<g class="st3">
					<path id="path-1_00000091011881254189849230000012928252193114982077_" class="st4" d="M-2.4,11.1c-4.1,8.8-0.3,19.2,8.5,23.3
						c8.8,4.1,19.2,0.3,23.3-8.5c4.1-8.8,0.3-19.2-8.5-23.3C18.5,1.5,16,1,13.5,1C6.9,1,0.6,4.7-2.4,11.1L-2.4,11.1z"/>
				</g>
			</mask>
			<g id="Group_00000057123674255384432930000010060770665857216911_" class="st5">
				<g id="Clipped" transform="translate(-59.047358, -12.452896)">
					<g>
						<g id="Path_00000093897304607975306270000015628853144161864381_">
						</g>
						<defs>
							
								<filter id="Adobe_OpacityMaskFilter_00000046316093716548800010000007656662837860986781_" filterUnits="userSpaceOnUse" x="73.8" y="14.1" width="8.9" height="8.9">
								<feColorMatrix  type="matrix" values="1 0 0 0 0  0 1 0 0 0  0 0 1 0 0  0 0 0 1 0"/>
							</filter>
						</defs>
						
							<mask maskUnits="userSpaceOnUse" x="73.8" y="14.1" width="8.9" height="8.9" id="mask-4_00000018199228850983432700000016724008956575519141_">
							<g style="filter:url(#Adobe_OpacityMaskFilter_00000046316093716548800010000007656662837860986781_);">
								<polygon id="path-3_00000087380354282519079200000012430314582054507676_" class="st4" points="91.6,2.9 5.3,2.9 5.3,50.1 
									91.6,50.1 								"/>
							</g>
						</mask>
						<path id="Path_00000116936864487719104140000005570029613272568975_" class="st7" d="M82.3,20.4c-1,2.2-3.7,3.2-5.9,2.1
							c-2.2-1-3.2-3.7-2.1-5.9c1-2.2,3.7-3.2,5.9-2.1C82.4,15.6,83.3,18.2,82.3,20.4L82.3,20.4z"/>
					</g>
					<g>
						<g id="Path_00000174568349710883422450000015404729493739202736_">
						</g>
						<defs>
							
								<filter id="Adobe_OpacityMaskFilter_00000129188140105127719170000005330554284498170787_" filterUnits="userSpaceOnUse" x="62.7" y="26" width="6.7" height="6.7">
								<feColorMatrix  type="matrix" values="1 0 0 0 0  0 1 0 0 0  0 0 1 0 0  0 0 0 1 0"/>
							</filter>
						</defs>
						
							<mask maskUnits="userSpaceOnUse" x="62.7" y="26" width="6.7" height="6.7" id="mask-6_00000060015246543789776040000008244370739750108845_">
							<g style="filter:url(#Adobe_OpacityMaskFilter_00000129188140105127719170000005330554284498170787_);">
								<polygon id="path-5_00000155834605062472939400000006587899758608652938_" class="st4" points="91.6,2.9 5.3,2.9 5.3,50.1 
									91.6,50.1 								"/>
							</g>
						</mask>
						<path id="Path_00000162333014002396000880000000330540771933088690_" class="st9" d="M69.1,30.8c-0.8,1.7-2.8,2.4-4.4,1.6
							c-1.7-0.8-2.4-2.8-1.6-4.4c0.8-1.7,2.8-2.4,4.4-1.6C69.1,27.1,69.8,29.1,69.1,30.8z"/>
					</g>
					<g>
						<g id="Path_00000158030055817236082430000001283318744166982324_">
						</g>
						<defs>
							
								<filter id="Adobe_OpacityMaskFilter_00000064313142260202971680000015003313499020588468_" filterUnits="userSpaceOnUse" x="62.8" y="17.6" width="4.2" height="4.2">
								<feColorMatrix  type="matrix" values="1 0 0 0 0  0 1 0 0 0  0 0 1 0 0  0 0 0 1 0"/>
							</filter>
						</defs>
						
							<mask maskUnits="userSpaceOnUse" x="62.8" y="17.6" width="4.2" height="4.2" id="mask-8_00000054981436123089227360000003922894205699100605_">
							<g style="filter:url(#Adobe_OpacityMaskFilter_00000064313142260202971680000015003313499020588468_);">
								<polygon id="path-7_00000080915746509541349960000018142088564515037074_" class="st4" points="91.6,2.9 5.3,2.9 5.3,50.1 
									91.6,50.1 								"/>
							</g>
						</mask>
						<path id="Path_00000104671064888134558840000007838516196619457199_" class="st11" d="M66.8,20.5c-0.5,1-1.7,1.5-2.8,1
							c-1-0.5-1.5-1.7-1-2.8c0.5-1,1.7-1.5,2.8-1C66.8,18.2,67.3,19.5,66.8,20.5z"/>
					</g>
					<g>
						<g id="Path_00000008134279802308682790000015635805171960782985_">
						</g>
						<defs>
							
								<filter id="Adobe_OpacityMaskFilter_00000013915475831585515860000015463515183125171352_" filterUnits="userSpaceOnUse" x="58.7" y="34.7" width="4.2" height="4.2">
								<feColorMatrix  type="matrix" values="1 0 0 0 0  0 1 0 0 0  0 0 1 0 0  0 0 0 1 0"/>
							</filter>
						</defs>
						
							<mask maskUnits="userSpaceOnUse" x="58.7" y="34.7" width="4.2" height="4.2" id="mask-10_00000155858631616322820820000000591674227629206435_">
							<g style="filter:url(#Adobe_OpacityMaskFilter_00000013915475831585515860000015463515183125171352_);">
								<polygon id="path-9_00000174566892785386072890000009539634703399393685_" class="st4" points="91.6,2.9 5.3,2.9 5.3,50.1 
									91.6,50.1 								"/>
							</g>
						</mask>
						<path id="Path_00000024698039353014831520000013669271763806911115_" class="st13" d="M62.7,37.7c-0.5,1-1.7,1.5-2.8,1
							c-1-0.5-1.5-1.7-1-2.8c0.5-1,1.7-1.5,2.8-1C62.7,35.4,63.1,36.6,62.7,37.7L62.7,37.7z"/>
					</g>
					<g>
						<g id="Path_00000051341610970556826210000007611272613884211122_">
						</g>
						<defs>
							
								<filter id="Adobe_OpacityMaskFilter_00000029741634973349740420000018333425705517843902_" filterUnits="userSpaceOnUse" x="74.6" y="31.5" width="6.7" height="6.7">
								<feColorMatrix  type="matrix" values="1 0 0 0 0  0 1 0 0 0  0 0 1 0 0  0 0 0 1 0"/>
							</filter>
						</defs>
						
							<mask maskUnits="userSpaceOnUse" x="74.6" y="31.5" width="6.7" height="6.7" id="mask-12_00000155120435691390590550000013272417082445627570_">
							<g style="filter:url(#Adobe_OpacityMaskFilter_00000029741634973349740420000018333425705517843902_);">
								<polygon id="path-11_00000108307664128613362890000010460154713719643284_" class="st4" points="91.6,2.9 5.3,2.9 5.3,50.1 
									91.6,50.1 								"/>
							</g>
						</mask>
						<path id="Path_00000055694492580506539380000006211193066663264188_" class="st15" d="M74.9,33.5c-0.8,1.7-0.1,3.7,1.6,4.4
							c1.7,0.8,3.7,0.1,4.4-1.6c0.8-1.7,0.1-3.7-1.6-4.4C77.6,31.1,75.6,31.8,74.9,33.5z"/>
					</g>
					<g>
						<g id="Path_00000109001038025323694070000001121568174616401325_">
						</g>
						<defs>
							
								<filter id="Adobe_OpacityMaskFilter_00000049937047153804543820000000578424311443812255_" filterUnits="userSpaceOnUse" x="84" y="27.4" width="4.2" height="4.2">
								<feColorMatrix  type="matrix" values="1 0 0 0 0  0 1 0 0 0  0 0 1 0 0  0 0 0 1 0"/>
							</filter>
						</defs>
						
							<mask maskUnits="userSpaceOnUse" x="84" y="27.4" width="4.2" height="4.2" id="mask-14_00000007408900427994124470000000860510126133312927_">
							<g style="filter:url(#Adobe_OpacityMaskFilter_00000049937047153804543820000000578424311443812255_);">
								<polygon id="path-13_00000072265883183082943800000002860770372614990228_" class="st4" points="91.6,2.9 5.3,2.9 5.3,50.1 
									91.6,50.1 								"/>
							</g>
						</mask>
						<path id="Path_00000181075712075056180340000002224116115865264024_" class="st17" d="M84.2,28.6c-0.5,1,0,2.3,1,2.8
							c1,0.5,2.3,0,2.8-1c0.5-1,0-2.3-1-2.8C85.9,27.1,84.6,27.6,84.2,28.6L84.2,28.6z"/>
					</g>
					<g>
						<g id="Path_00000037684655298342264750000003116349537961052564_">
						</g>
						<defs>
							
								<filter id="Adobe_OpacityMaskFilter_00000164499523720769529110000006197992321782596260_" filterUnits="userSpaceOnUse" x="73.5" y="41.6" width="4.2" height="4.2">
								<feColorMatrix  type="matrix" values="1 0 0 0 0  0 1 0 0 0  0 0 1 0 0  0 0 0 1 0"/>
							</filter>
						</defs>
						
							<mask maskUnits="userSpaceOnUse" x="73.5" y="41.6" width="4.2" height="4.2" id="mask-16_00000105400910820478629410000004384438025749692852_">
							<g style="filter:url(#Adobe_OpacityMaskFilter_00000164499523720769529110000006197992321782596260_);">
								<polygon id="path-15_00000047754093715344739240000017834101164076537224_" class="st4" points="91.6,2.9 5.3,2.9 5.3,50.1 
									91.6,50.1 								"/>
							</g>
						</mask>
						<path id="Path_00000048483478461637967790000017363678015294139028_" class="st19" d="M73.7,42.8c-0.5,1,0,2.3,1,2.8
							c1,0.5,2.3,0,2.8-1c0.5-1,0-2.3-1-2.8C75.4,41.3,74.2,41.8,73.7,42.8L73.7,42.8z"/>
					</g>
				</g>
			</g>
		</g>
		<g id="Clipped_00000019643897375337690290000016131305769537685894_" transform="translate(57.209465, 10.609875)">
			<g id="Path_00000125571660529228690140000007270938466865000858_">
			</g>
			<defs>
				
					<filter id="Adobe_OpacityMaskFilter_00000156560390208815664600000009815503611680534938_" filterUnits="userSpaceOnUse" x="5.4" y="2.2" width="16" height="32.8">
					<feColorMatrix  type="matrix" values="1 0 0 0 0  0 1 0 0 0  0 0 1 0 0  0 0 0 1 0"/>
				</filter>
			</defs>
			
				<mask maskUnits="userSpaceOnUse" x="5.4" y="2.2" width="16" height="32.8" id="mask-18_00000029759890169765147750000016359979847829910967_">
				<g style="filter:url(#Adobe_OpacityMaskFilter_00000156560390208815664600000009815503611680534938_);">
					<path id="path-17_00000168796305801103913240000012935125698910621057_" class="st4" d="M-2.4,11.1c-4.1,8.8-0.3,19.2,8.5,23.3
						c8.8,4.1,19.2,0.3,23.3-8.5c4.1-8.8,0.3-19.2-8.5-23.3C18.5,1.5,16,1,13.5,1C6.9,1,0.6,4.7-2.4,11.1L-2.4,11.1z"/>
				</g>
			</mask>
			<path id="Path_00000067939013126308273240000002482861906671688086_" class="st21" d="M21,2.4c-0.2-0.1-0.3-0.1-0.5-0.2L5.4,34.6
				c0.2,0.1,0.3,0.2,0.5,0.2C6,34.9,6.2,35,6.3,35L21.4,2.6C21.3,2.6,21.1,2.5,21,2.4z"/>
		</g>
	</g>
</g>
</svg>
